<?xml version="1.0" encoding="UTF-8"?>
<!-- Generator: visioncortex VTracer 0.6.3 -->
<svg version="1.1" xmlns="http://www.w3.org/2000/svg" width="1280" height="251">
<path d="M0 0 C2.29 2.29 3.68 4.19 4.88 7.19 C5.93 9.23 5.93 9.23 8.5 10.31 C13.18 11.23 17.39 11.37 22 10 C24.36 7.3 24.36 7.3 26 4 C27.9 1.78 29.47 0.64 32 -1 C36.95 -1 39.93 0.35 44 3 C45.22 3.54 46.45 4.06 47.69 4.56 C51 6 51 6 53 8 C53.88 14.12 52.56 20.11 51 26 C52.32 26.66 53.64 27.32 55 28 C55 28.99 55 29.98 55 31 C55.58 31 56.16 31.01 56.76 31.01 C59.4 31.05 62.04 31.12 64.69 31.19 C65.6 31.19 66.51 31.2 67.45 31.21 C72.05 31.36 74.31 31.46 78.02 34.36 C82.61 40.47 83.58 45.67 82.56 53.25 C80.57 56.76 78.09 58.47 74.78 60.7 C72.86 61.89 72.86 61.89 72 64 C71.93 66.04 71.92 68.08 71.94 70.12 C71.95 71.22 71.96 72.32 71.96 73.45 C71.98 74.29 71.99 75.13 72 76 C72.89 76.21 73.77 76.41 74.69 76.62 C77.8 77.92 80.07 79.05 82.14 81.76 C84.16 87.05 83.33 93.63 82 99 C79.51 101.85 79.51 101.85 77 104 C76.57 104.62 76.13 105.24 75.69 105.88 C73.17 107.56 70.95 106.94 68.07 106.46 C65.3 105.84 62.66 105 60 104 C60 104.66 60 105.32 60 106 C59.26 106.21 58.51 106.41 57.75 106.62 C54.13 108.44 52.85 110.44 51 114 C51.21 116.47 51.9 117.8 53 120 C53.69 127.05 53.69 127.05 50.94 130.81 C45.29 135.02 39.08 137.39 32 137 C28.39 135.95 25.86 134.43 23.9 131.17 C23.06 129.25 23.06 129.25 22 126 C19.92 125.95 17.83 125.91 15.75 125.88 C14.59 125.85 13.43 125.83 12.23 125.8 C9.15 125.99 7.49 126.21 5 128 C4.67 128.99 4.34 129.98 4 131 C3 134 3 134 1.27 135.17 C-4.09 137.13 -10.7 136.82 -16 134.75 C-19.51 132.7 -21.3 131.07 -22.61 127.21 C-23.24 123.66 -22.54 120.3 -22.06 116.75 C-21.99 113.58 -22.47 111.77 -24 109 C-25.76 107.53 -25.76 107.53 -27.88 106.62 C-28.55 106.29 -29.23 105.95 -29.93 105.6 C-32.98 104.72 -34.98 105.63 -37.88 106.69 C-41.56 107.23 -44.69 105.93 -47.69 103.81 C-49.65 101.11 -50.72 98.07 -52 95 C-52.66 94.34 -53.32 93.68 -54 93 C-54.72 89.76 -55.3 87.12 -54.44 83.88 C-51.62 80.2 -48.39 77.46 -44 76 C-43.97 73.73 -43.95 71.46 -43.94 69.19 C-43.93 67.92 -43.91 66.66 -43.9 65.36 C-43.84 62 -43.84 62 -45 59 C-47.31 57.95 -49.65 56.95 -52 56 C-54.83 53.17 -54.73 50.93 -55 47 C-53.94 43.3 -52.03 40.25 -50 37 C-49.52 35.69 -49.52 35.69 -49.04 34.36 C-47 32 -47 32 -44.88 31.6 C-42.18 31.51 -39.52 31.57 -36.81 31.69 C-35.87 31.71 -34.93 31.73 -33.96 31.76 C-31.64 31.81 -29.32 31.9 -27 32 C-26.73 31.38 -26.46 30.76 -26.19 30.12 C-25 28 -25 28 -22 26 C-21.63 24.12 -21.63 24.12 -21.81 21.97 C-21.84 21.18 -21.86 20.39 -21.88 19.57 C-21.96 17.9 -22.04 16.23 -22.12 14.56 C-22.14 13.77 -22.16 12.98 -22.19 12.16 C-22.24 11.07 -22.24 11.07 -22.29 9.96 C-21.91 7.41 -20.97 6.6 -19 5 C-17.1 3.9 -17.1 3.9 -15.06 2.94 C-14.06 2.46 -14.06 2.46 -13.04 1.96 C-12.03 1.49 -12.03 1.49 -11 1 C-9.99 0.44 -9.99 0.44 -8.96 -0.12 C-5.72 -1.57 -3.36 -0.9 0 0 Z M9 42 C9 42.66 9 43.32 9 44 C8.3 44.18 7.6 44.36 6.88 44.55 C5.97 44.8 5.06 45.05 4.12 45.31 C3.22 45.56 2.32 45.8 1.38 46.05 C-1.32 46.87 -1.32 46.87 -3 50 C-3.66 50.28 -4.31 50.55 -4.99 50.84 C-7.89 52.51 -8.19 54.43 -9.19 57.56 C-10.94 62.94 -10.94 62.94 -12 64 C-12.57 70.52 -11.32 74.44 -8 80 C-7.55 80.82 -7.1 81.63 -6.64 82.47 C-4.87 85.2 -2.99 87.1 -0.56 89.25 C0.2 89.94 0.96 90.62 1.75 91.33 C5.93 94.43 9.82 94.16 14.94 94.19 C16.14 94.2 17.35 94.22 18.59 94.23 C23.83 93.88 26.92 92.13 31 89 C31.99 88.67 32.98 88.34 34 88 C35.04 86.36 36.04 84.69 37 83 C37.52 82.55 38.03 82.11 38.57 81.64 C41.46 78.33 40.47 73.32 40.44 69.12 C40.46 68.13 40.48 67.14 40.5 66.11 C40.53 60.22 40.53 60.22 38.04 55 C37.37 54.34 36.69 53.68 36 53 C35.63 51.97 35.26 50.94 34.88 49.88 C32.33 45.97 29.78 45.66 25.38 44.64 C23 44 23 44 20 42 C17.25 41.76 17.25 41.76 14.31 41.88 C13.32 41.89 12.32 41.91 11.3 41.93 C10.54 41.95 9.78 41.98 9 42 Z " fill="#000000" transform="translate(154,22)"/>
<path d="M0 0 C1.44 -0.03 1.44 -0.03 2.91 -0.06 C3.83 -0.07 4.76 -0.07 5.71 -0.08 C6.98 -0.09 6.98 -0.09 8.27 -0.11 C11.2 0.34 12.53 1.18 14.62 3.25 C15.75 6.52 15.78 9.68 15.83 13.12 C15.85 14.3 15.87 15.48 15.89 16.7 C15.91 17.97 15.92 19.24 15.94 20.55 C15.96 21.85 15.98 23.15 16 24.5 C16.06 27.96 16.11 31.42 16.16 34.87 C16.21 38.41 16.26 41.94 16.32 45.47 C16.43 52.4 16.53 59.32 16.62 66.25 C17.25 66.23 17.88 66.2 18.52 66.18 C19.34 66.16 20.16 66.14 21 66.12 C21.81 66.1 22.62 66.08 23.46 66.05 C25.62 66.25 25.62 66.25 27.62 68.25 C29.42 66.45 28.78 63.74 28.8 61.31 C28.81 60.04 28.83 58.77 28.84 57.46 C28.84 56.77 28.85 56.09 28.85 55.38 C28.87 53.25 28.89 51.11 28.92 48.98 C28.99 42.91 29.05 36.84 29.1 30.77 C29.13 27.06 29.17 23.35 29.22 19.64 C29.24 18.22 29.25 16.8 29.26 15.39 C29.27 13.41 29.3 11.43 29.32 9.45 C29.33 8.32 29.34 7.2 29.35 6.03 C29.62 3.25 29.62 3.25 31.62 0.25 C34.47 -0.11 37.03 -0.26 39.88 -0.25 C40.63 -0.28 41.38 -0.31 42.15 -0.34 C46.76 -0.35 49.94 0.24 53.41 3.6 C57.56 9.24 58.07 16.34 58.01 23.1 C58.02 23.93 58.02 24.77 58.03 25.63 C58.04 28.35 58.03 31.08 58.02 33.81 C58.03 35.72 58.03 37.64 58.03 39.55 C58.04 43.55 58.03 47.55 58.02 51.55 C58 56.66 58.01 61.76 58.03 66.86 C58.04 70.81 58.03 74.76 58.03 78.71 C58.02 80.59 58.03 82.47 58.03 84.36 C58.09 105.24 58.09 105.24 54.62 111.25 C49.66 115.49 45.5 115.41 39.06 115.44 C38.39 115.45 37.72 115.46 37.03 115.47 C33.33 115.49 31.79 115.36 28.62 113.25 C27.63 113.91 26.64 114.57 25.62 115.25 C23.3 115.51 23.3 115.51 20.58 115.52 C19.59 115.52 18.6 115.52 17.58 115.52 C16.02 115.51 16.02 115.51 14.44 115.5 C13.42 115.51 12.4 115.52 11.36 115.52 C-2.91 115.49 -2.91 115.49 -7.75 111.09 C-9.71 107.67 -10.57 104.61 -11.38 100.75 C-11.53 100.1 -11.69 99.45 -11.86 98.78 C-12.59 95.16 -12.58 93.59 -10.62 90.41 C-6.18 86.15 -2.83 85.88 3.06 85.88 C3.83 85.85 4.59 85.83 5.38 85.8 C9.06 85.78 11.03 85.83 14.11 87.98 C15.79 90.49 16.2 92.01 16.38 95 C16.43 95.8 16.49 96.6 16.55 97.42 C16.57 98.03 16.6 98.63 16.62 99.25 C17.32 99.38 18.02 99.52 18.74 99.65 C19.65 99.83 20.56 100.01 21.5 100.19 C22.4 100.36 23.31 100.54 24.24 100.71 C26.62 101.25 26.62 101.25 28.62 102.25 C28.62 94.99 28.62 87.73 28.62 80.25 C26.55 80.1 26.55 80.1 24.62 81.25 C20.4 81.52 16.17 81.48 11.94 81.5 C10.77 81.52 9.59 81.54 8.38 81.56 C-3.79 81.62 -3.79 81.62 -8.38 78.25 C-14.17 69.7 -15.23 61.99 -15.03 51.88 C-15.03 50.53 -15.02 49.19 -15.02 47.85 C-15.01 45.07 -14.98 42.29 -14.94 39.5 C-14.88 35.94 -14.86 32.38 -14.85 28.82 C-14.84 25.4 -14.81 21.98 -14.78 18.56 C-14.77 17.29 -14.76 16.01 -14.76 14.7 C-14.74 13.51 -14.72 12.33 -14.7 11.11 C-14.68 10.07 -14.67 9.04 -14.66 7.97 C-14.37 5.21 -13.88 3.56 -12.38 1.25 C-8.63 -0.62 -4.12 0.02 0 0 Z " fill="#000000" transform="translate(723.375,76.75)"/>
<path d="M0 0 C2.19 2.31 2.19 2.31 4 5 C5.71 7.38 5.71 7.38 8 9 C11.67 9.33 11.67 9.33 15 9 C15.33 8.01 15.66 7.02 16 6 C19.98 3.78 23.51 3.61 28 4 C33.23 6.23 33.23 6.23 35 8 C35.21 10.27 35.37 12.54 35.5 14.81 C35.8 20.48 35.8 20.48 37 26 C37.9 26.06 38.81 26.13 39.74 26.19 C43.28 26.56 46.57 27.03 50 28 C53.5 32.54 53.35 37.14 53.4 42.77 C52.92 45.47 52.09 46.28 50 48 C46.29 51.56 46.29 51.56 44.67 56.35 C45.09 59.7 46.4 61.57 48.25 64.38 C51.12 69.36 51.12 69.36 50.58 72.16 C49.5 74 49.5 74 47 77 C46.34 77.99 45.68 78.98 45 80 C42.29 80.36 39.78 80.56 37.06 80.62 C31.45 80.77 31.45 80.77 26 82 C25.82 83.37 25.82 83.37 25.63 84.77 C25.47 85.96 25.3 87.15 25.12 88.38 C24.96 89.56 24.8 90.74 24.63 91.96 C24 95 24 95 22 97 C18.88 97.77 18.88 97.77 15.12 98.38 C13.89 98.59 12.66 98.8 11.38 99.02 C8 99 8 99 5.55 97.23 C4 95 4 95 4 92 C-2.58 90.94 -6.67 90.66 -12.31 94.62 C-12.87 95.08 -13.43 95.53 -14 96 C-14.68 95.57 -15.36 95.13 -16.06 94.69 C-18.29 93.41 -20.33 92.4 -22.69 91.44 C-26 90 -26 90 -28 88 C-28.16 85.39 -28.16 85.39 -28.06 82.25 C-27.94 78.01 -28.19 74.17 -29 70 C-29.9 69.96 -30.81 69.93 -31.74 69.89 C-32.92 69.82 -34.1 69.76 -35.31 69.69 C-36.48 69.63 -37.66 69.57 -38.86 69.51 C-42 69 -42 69 -43.86 67.71 C-46.01 64.5 -46.17 61.23 -46.25 57.44 C-46.28 56.67 -46.3 55.91 -46.33 55.12 C-45.91 52.43 -45.15 51.63 -43 50 C-40.69 49.26 -38.36 48.58 -36 48 C-36 44.37 -36 40.74 -36 37 C-37.32 36.34 -38.64 35.68 -40 35 C-41.93 30.44 -40.56 25.51 -39 21 C-36.98 18.12 -35.8 17.23 -32.44 16.25 C-27.62 15.9 -22.83 15.92 -18 16 C-17.97 15.1 -17.95 14.19 -17.92 13.26 C-17.87 12.08 -17.81 10.9 -17.75 9.69 C-17.68 7.93 -17.68 7.93 -17.61 6.14 C-17 3 -17 3 -15.13 1.13 C-10.22 -1.47 -5.29 -1.37 0 0 Z M-9 37 C-11.01 40.19 -12.04 43.37 -13 47 C-13.33 47.66 -13.66 48.32 -14 49 C-13.19 51.76 -13.19 51.76 -11.88 54.81 C-11.46 55.85 -11.04 56.89 -10.62 57.96 C-8.76 61.45 -7.15 63.59 -4 66 C-0.33 66.68 -0.33 66.68 3.56 66.44 C4.86 66.42 6.16 66.39 7.5 66.37 C10.65 66.04 12.44 65.78 15 64 C16.39 62.04 17.73 60.04 19 58 C19.66 57.34 20.32 56.68 21 56 C21.73 50.59 22.21 44.7 19.94 39.62 C16.58 35.39 12.27 33.07 7 32 C0.99 31.54 -4.11 33.58 -9 37 Z " fill="#000000" transform="translate(89,133)"/>
<path d="M0 0 C0.71 -0.01 1.42 -0.02 2.14 -0.04 C6.63 -0.01 9.63 0.5 13.12 3.38 C14.23 5.31 14.23 5.31 14.88 7.38 C15.1 8.06 15.32 8.74 15.55 9.44 C15.74 10.08 15.93 10.72 16.12 11.38 C16.46 12.37 16.78 13.36 17.12 14.38 C17.24 15.89 17.3 17.42 17.33 18.94 C17.35 19.86 17.37 20.78 17.39 21.73 C17.41 22.72 17.42 23.71 17.44 24.73 C17.46 25.75 17.48 26.76 17.5 27.81 C17.57 31.06 17.63 34.31 17.69 37.56 C17.73 39.76 17.77 41.97 17.82 44.17 C17.93 49.57 18.03 54.97 18.12 60.38 C21.1 60.38 24.07 60.38 27.12 60.38 C27.16 59.16 27.2 57.94 27.24 56.68 C27.3 55.06 27.37 53.44 27.44 51.81 C27.47 50.61 27.47 50.61 27.51 49.39 C27.75 44.05 28.6 40.11 31.12 35.38 C34.75 33.56 39 34.15 43 34.12 C43.91 34.1 44.82 34.08 45.76 34.06 C46.64 34.06 47.52 34.05 48.43 34.05 C49.23 34.04 50.04 34.03 50.87 34.02 C53.69 34.46 55.05 35.43 57.12 37.38 C59.95 47.77 59.4 59.68 54.3 69.12 C52.89 71.83 52.37 74.34 52.12 77.38 C52.91 77.64 53.69 77.91 54.5 78.19 C57.12 79.38 57.12 79.38 59.12 82.38 C59.53 86.66 59.5 90.95 59.5 95.25 C59.5 97.37 59.54 99.48 59.57 101.59 C59.58 102.94 59.58 104.28 59.59 105.62 C59.59 106.85 59.6 108.07 59.61 109.33 C59.12 112.38 59.12 112.38 57.37 114.27 C53.55 116.15 49.87 115.85 45.69 115.81 C44.84 115.83 43.99 115.85 43.12 115.87 C39.05 115.87 36.71 115.72 33.15 113.6 C27.92 107.86 28.76 101.79 28.75 94.38 C28.73 93.19 28.7 92 28.68 90.77 C28.67 89.06 28.67 89.06 28.66 87.31 C28.66 86.27 28.65 85.23 28.64 84.15 C29.12 81.38 29.12 81.38 33.12 77.38 C28.17 77.38 23.23 77.38 18.12 77.38 C18.11 79.78 18.1 82.19 18.08 84.67 C18.05 87.01 18.01 89.35 17.97 91.68 C17.95 93.3 17.93 94.93 17.93 96.55 C17.92 98.88 17.88 101.21 17.83 103.55 C17.84 104.63 17.84 104.63 17.84 105.74 C17.74 109.43 17.4 111.08 14.86 113.83 C12.13 115.37 10.71 115.89 7.62 115.91 C6.8 115.91 5.97 115.92 5.13 115.92 C4.28 115.91 3.43 115.89 2.56 115.88 C1.29 115.9 1.29 115.9 -0.01 115.92 C-1.25 115.91 -1.25 115.91 -2.5 115.91 C-3.25 115.9 -3.99 115.9 -4.76 115.89 C-7.96 115.11 -8.92 114.07 -10.88 111.38 C-11.48 107.94 -11.41 104.53 -11.38 101.05 C-11.38 100.01 -11.39 98.96 -11.39 97.88 C-11.41 94.4 -11.39 90.94 -11.37 87.46 C-11.37 85.06 -11.37 82.65 -11.38 80.24 C-11.38 75.19 -11.36 70.14 -11.34 65.1 C-11.31 58.62 -11.32 52.14 -11.33 45.66 C-11.34 40.69 -11.33 35.71 -11.32 30.74 C-11.31 28.35 -11.31 25.96 -11.31 23.57 C-11.32 20.24 -11.3 16.9 -11.28 13.57 C-11.28 12.57 -11.29 11.58 -11.29 10.56 C-11.28 9.65 -11.27 8.74 -11.26 7.81 C-11.26 7.02 -11.26 6.23 -11.26 5.42 C-10.14 -0.58 -5.06 -0.08 0 0 Z " fill="#000000" transform="translate(545.875,42.625)"/>
<path d="M0 0 C1.05 -0 2.09 -0 3.17 -0 C5.38 -0 7.59 0.01 9.8 0.03 C13.18 0.06 16.55 0.05 19.93 0.04 C22.08 0.04 24.23 0.05 26.38 0.06 C27.38 0.06 28.39 0.06 29.43 0.05 C38.15 0.17 38.15 0.17 42.19 3.5 C43.95 5.43 43.95 5.43 45.44 7.5 C45.94 8.18 46.44 8.86 46.95 9.56 C49.07 12.88 49.31 15.61 49.31 19.44 C49.32 20.44 49.32 21.45 49.33 22.48 C49.33 23.57 49.33 24.65 49.33 25.77 C49.35 28.06 49.37 30.35 49.39 32.64 C49.42 36.26 49.44 39.88 49.44 43.49 C49.44 46.98 49.48 50.47 49.52 53.96 C49.51 55.04 49.5 56.12 49.49 57.23 C49.51 63.39 49.51 63.39 52.69 68.49 C53.52 69.16 54.34 69.82 55.19 70.5 C55.79 74.32 55.9 76.42 53.74 79.69 C49.9 82.41 46.4 82 41.81 81.87 C40.97 81.87 40.14 81.87 39.27 81.87 C34.57 81.8 30.54 81.45 26.19 79.5 C23.81 76.87 23.81 76.87 22.19 74.5 C21.85 75.67 21.85 75.67 21.5 76.87 C20.19 79.5 20.19 79.5 17.95 80.64 C15.04 81.54 12.7 81.75 9.66 81.76 C8.1 81.77 8.1 81.77 6.51 81.77 C5.43 81.76 4.36 81.75 3.25 81.75 C1.64 81.76 1.64 81.76 0 81.77 C-6.09 81.75 -11.35 81.7 -16.64 78.33 C-21.77 73.06 -21.91 66.95 -22.49 59.95 C-22.59 56.64 -22.59 56.64 -23.81 54.5 C-23.91 52.41 -23.94 50.33 -23.95 48.25 C-23.95 47 -23.95 45.75 -23.95 44.46 C-23.95 43.16 -23.94 41.85 -23.94 40.5 C-23.94 39.19 -23.95 37.88 -23.95 36.53 C-23.95 35.28 -23.95 34.03 -23.95 32.75 C-23.94 31.6 -23.94 30.45 -23.94 29.26 C-23.81 26.5 -23.81 26.5 -22.81 24.5 C-22.47 21.39 -22.14 18.29 -21.91 15.17 C-21.36 9.97 -19.78 7.79 -15.81 4.5 C-14.82 3.45 -14.82 3.45 -13.82 2.39 C-9.32 -0.44 -5.2 -0.06 0 0 Z M10.62 16.5 C9.61 16.87 8.6 17.24 7.56 17.62 C6.78 17.91 5.99 18.2 5.19 18.5 C5.06 24.85 4.97 31.2 4.91 37.56 C4.89 39.72 4.85 41.88 4.81 44.04 C4.75 47.15 4.72 50.25 4.7 53.36 C4.67 54.33 4.65 55.3 4.62 56.3 C4.62 58.8 4.66 61.05 5.19 63.5 C8.16 66.12 10.51 66.9 14.44 66.75 C17.98 66.92 17.98 66.92 19.19 65.5 C19.29 64.04 19.33 62.59 19.33 61.13 C19.34 60.2 19.35 59.28 19.35 58.32 C19.35 57.31 19.35 56.3 19.36 55.26 C19.36 54.23 19.36 53.19 19.37 52.13 C19.37 49.94 19.37 47.75 19.37 45.56 C19.37 42.21 19.39 38.86 19.41 35.51 C19.42 33.38 19.42 31.26 19.42 29.13 C19.43 27.63 19.43 27.63 19.44 26.09 C19.44 25.15 19.43 24.21 19.43 23.25 C19.43 22.01 19.43 22.01 19.43 20.75 C19.16 18.27 18.43 16.64 17.19 14.5 C14.98 14.5 12.66 15.75 10.62 16.5 Z " fill="#000000" transform="translate(393.8125,76.50390625)"/>
<path d="M0 0 C0.33 -0.33 0.66 -0.66 1 -1 C5.51 -1.4 10.04 -1.42 14.56 -1.5 C16.46 -1.58 16.46 -1.58 18.39 -1.66 C24.59 -1.75 28.98 -1.78 33.84 2.34 C38.09 6.67 38.18 10.44 38.25 16.38 C38.28 17.68 38.3 18.99 38.33 20.34 C37.8 26.24 37.8 26.24 35 29 C31.82 29.67 28.74 29.56 25.5 29.44 C24.63 29.43 23.76 29.43 22.87 29.42 C16.44 29.3 16.44 29.3 13 27 C12.27 24.18 12.27 24.18 11.81 20.88 C11.65 19.78 11.5 18.68 11.33 17.55 C11.22 16.71 11.11 15.87 11 15 C8.02 15.1 8.02 15.1 5.04 15.2 C3 15 3 15 0 13 C-1.2 16.75 -1.1 20.33 -1.06 24.25 C-1.05 25.51 -1.04 26.78 -1.04 28.08 C-1.02 29.04 -1.01 30.01 -1 31 C-0.3 31.12 0.4 31.24 1.12 31.37 C2.03 31.53 2.94 31.7 3.88 31.88 C4.78 32.04 5.68 32.2 6.62 32.37 C9 33 9 33 11 35 C11.77 34.27 11.77 34.27 12.56 33.52 C15.83 31.48 18.18 31.6 22 31.62 C23.22 31.62 24.43 31.61 25.69 31.6 C29.14 32.02 30.59 32.53 33 35 C33 35.66 33 36.32 33 37 C34.98 37.5 34.98 37.5 37 38 C40.11 49.13 42.85 61.42 37.21 72.16 C34.69 75.99 32.37 78.54 28 80 C25.88 80.12 23.75 80.18 21.62 80.19 C20.5 80.2 19.38 80.22 18.23 80.23 C15 80 15 80 12.27 78.86 C11.52 78.58 10.77 78.29 10 78 C9.01 78.66 8.02 79.32 7 80 C4.43 80.26 4.43 80.26 1.38 80.27 C0.28 80.27 -0.82 80.27 -1.96 80.27 C-3.1 80.27 -4.25 80.26 -5.44 80.25 C-6.58 80.26 -7.73 80.27 -8.91 80.27 C-10.01 80.27 -11.11 80.27 -12.25 80.27 C-13.25 80.26 -14.26 80.26 -15.3 80.26 C-20.63 79.75 -23.61 77.03 -27 73 C-28.99 67.7 -31.05 61.04 -29.14 55.5 C-27.43 53.08 -25.66 51.33 -23 50 C-20.2 49.61 -17.44 49.3 -14.62 49.06 C-13.86 48.97 -13.09 48.88 -12.3 48.78 C-10.06 48.6 -8.2 48.54 -6 49 C-2.87 52.38 -1.53 55.3 -1.25 59.88 C-1.19 60.66 -1.14 61.44 -1.08 62.24 C-1.05 62.82 -1.03 63.4 -1 64 C-0.06 64.07 -0.06 64.07 0.9 64.15 C1.72 64.22 2.53 64.3 3.38 64.38 C4.19 64.44 5 64.51 5.84 64.59 C8 65 8 65 10 67 C11.2 66.02 11.2 66.02 11.11 64.14 C11.11 63.35 11.1 62.56 11.1 61.75 C11.09 60.89 11.09 60.04 11.09 59.16 C11.08 58.26 11.07 57.36 11.06 56.44 C11.06 55.54 11.05 54.63 11.05 53.71 C11.04 51.47 11.02 49.24 11 47 C8.25 47 5.49 47.03 2.74 47.07 C0.6 47.09 -1.55 47.11 -3.69 47.12 C-4.75 47.14 -5.82 47.16 -6.91 47.18 C-21.28 47.26 -21.28 47.26 -25.88 43.44 C-27.3 40.34 -27.95 37.27 -28.57 33.93 C-28.82 32 -28.82 32 -30 31 C-30.7 20.77 -31.24 11.43 -24.48 3.13 C-18.21 -2.8 -7.86 -2.62 0 0 Z " fill="#000000" transform="translate(484,78)"/>
<path d="M0 0 C1.06 -0.02 1.06 -0.02 2.14 -0.05 C6.67 -0.05 9.59 0.44 13.12 3.31 C19.89 11.99 18.61 22.97 18.12 33.31 C18.9 33.37 19.67 33.43 20.46 33.5 C21.46 33.58 22.47 33.66 23.5 33.75 C24.5 33.83 25.5 33.91 26.52 34 C29.12 34.31 29.12 34.31 31.12 35.31 C31.61 37.24 31.61 37.24 31.88 39.62 C31.97 40.4 32.07 41.18 32.17 41.99 C32.12 44.75 31.74 46.07 30.12 48.31 C27.78 49.54 27.78 49.54 25.06 50.5 C21.83 51.48 21.83 51.48 19.12 53.31 C19.01 56.37 18.96 59.4 18.96 62.46 C18.95 63.38 18.95 64.3 18.95 65.25 C18.94 67.2 18.94 69.16 18.94 71.11 C18.94 74.1 18.92 77.09 18.9 80.08 C18.9 81.98 18.9 83.87 18.89 85.77 C18.89 86.66 18.88 87.56 18.87 88.48 C18.88 89.74 18.88 89.74 18.88 91.02 C18.88 91.75 18.88 92.49 18.88 93.24 C19.17 95.67 19.84 97.24 21.12 99.31 C23.59 100.96 23.59 100.96 26.12 102.31 C28.12 104.31 28.12 104.31 28.56 107.69 C28.12 111.31 28.12 111.31 26.21 113.52 C21.85 116.05 18.2 115.83 13.25 115.69 C12.38 115.69 11.5 115.68 10.61 115.68 C-1.2 115.52 -1.2 115.52 -5.84 111.69 C-6.54 110.79 -6.54 110.79 -7.25 109.88 C-7.97 108.98 -7.97 108.98 -8.71 108.07 C-10.79 104.93 -11.01 102.18 -11.06 98.52 C-11.08 97.55 -11.1 96.58 -11.12 95.58 C-11.13 94.53 -11.14 93.48 -11.16 92.41 C-11.17 91.33 -11.19 90.25 -11.21 89.14 C-11.29 84.53 -11.36 79.92 -11.43 75.31 C-11.48 71.95 -11.54 68.58 -11.59 65.22 C-11.61 64.17 -11.62 63.12 -11.63 62.05 C-11.65 61.08 -11.67 60.1 -11.69 59.1 C-11.7 58.25 -11.71 57.39 -11.72 56.51 C-11.79 54.14 -11.79 54.14 -12.88 51.31 C-14.69 50.51 -14.69 50.51 -16.81 50 C-20.06 48.87 -20.67 48.66 -22.5 45.56 C-22.95 41.64 -22.24 38.99 -20.88 35.31 C-18.94 33.38 -15.49 33.69 -12.88 33.31 C-11 31.44 -11.7 28.23 -11.66 25.72 C-11.64 24.37 -11.61 23.01 -11.58 21.66 C-11.54 19.51 -11.5 17.37 -11.47 15.23 C-11.45 13.16 -11.4 11.1 -11.35 9.04 C-11.33 7.8 -11.31 6.56 -11.29 5.28 C-11.15 4.3 -11.02 3.32 -10.88 2.31 C-7.17 -0.16 -4.28 -0.02 0 0 Z " fill="#000000" transform="translate(333.875,42.6875)"/>
<path d="M0 0 C1.15 -0.01 2.29 -0.02 3.47 -0.04 C5.12 -0.04 5.12 -0.04 6.81 -0.04 C8.32 -0.05 8.32 -0.05 9.86 -0.06 C12.63 0.19 14.25 0.68 16.56 2.19 C18.09 5.24 17.8 7.83 17.56 11.19 C14.96 14.63 11.72 15.22 7.72 16.34 C5.21 17.32 4.08 17.95 2.56 20.19 C2.16 23.32 2.16 23.32 2.31 26.75 C2.33 27.91 2.34 29.06 2.36 30.25 C2.37 33.12 2.37 33.12 3.56 35.19 C3.89 34.86 4.22 34.53 4.56 34.19 C6.18 34.06 7.81 34.01 9.44 34 C10.76 33.98 10.76 33.98 12.12 33.96 C14.56 34.19 14.56 34.19 17.56 36.19 C17.96 38.25 17.96 38.25 17.94 40.62 C17.95 41.8 17.95 41.8 17.96 43 C17.47 45.68 16.67 46.51 14.56 48.19 C10.83 50.15 8.6 50.39 4.56 49.19 C3.57 48.69 3.57 48.69 2.56 48.19 C2.56 49 2.55 49.81 2.54 50.64 C2.49 58.26 2.41 65.89 2.33 73.51 C2.28 77.43 2.24 81.35 2.22 85.27 C2.19 89.05 2.15 92.83 2.1 96.61 C2.08 98.05 2.07 99.49 2.06 100.94 C2.06 102.96 2.03 104.98 1.99 106.99 C1.98 108.14 1.97 109.29 1.96 110.48 C1.83 111.37 1.7 112.27 1.56 113.19 C-2.07 115.61 -3.93 115.49 -8.25 115.5 C-9.45 115.52 -10.66 115.53 -11.89 115.55 C-15.85 115.14 -18.14 114.42 -21.44 112.19 C-25.36 106.55 -24.91 100.61 -24.95 94.01 C-24.97 92.84 -24.99 91.67 -25 90.47 C-25.06 86.75 -25.09 83.03 -25.12 79.31 C-25.16 76.79 -25.19 74.26 -25.23 71.73 C-25.31 65.55 -25.38 59.37 -25.44 53.19 C-25.99 52.93 -26.55 52.66 -27.12 52.39 C-27.84 52.04 -28.57 51.69 -29.32 51.33 C-30.04 50.99 -30.76 50.64 -31.5 50.29 C-34.29 48.71 -35.27 47.15 -36.44 44.19 C-37.31 40.56 -37.31 40.56 -37.44 37.19 C-35.79 34.83 -34.79 34.26 -31.96 33.68 C-31.06 33.62 -30.17 33.56 -29.25 33.5 C-28.35 33.43 -27.45 33.37 -26.52 33.3 C-25.49 33.24 -25.49 33.24 -24.44 33.19 C-24.46 31.98 -24.48 30.77 -24.51 29.53 C-24.53 27.92 -24.54 26.3 -24.56 24.69 C-24.58 23.9 -24.6 23.1 -24.61 22.29 C-24.66 16.33 -24.66 10.01 -20.82 5.13 C-20.22 4.67 -19.62 4.22 -19 3.75 C-18.4 3.28 -17.81 2.8 -17.19 2.32 C-12.09 -0.97 -5.83 0 0 0 Z " fill="#000000" transform="translate(687.4375,42.8125)"/>
<path d="M0 0 C0.72 -0.03 1.44 -0.07 2.18 -0.1 C4.3 -0.12 4.3 -0.12 8.12 0.44 C10.38 2.71 10.38 2.71 12.12 5.44 C12.81 6.01 13.5 6.59 14.2 7.19 C16.82 10.25 16.63 12.18 16.64 16.18 C16.65 16.85 16.66 17.52 16.66 18.2 C16.68 20.41 16.67 22.61 16.66 24.82 C16.66 26.35 16.66 27.88 16.67 29.42 C16.67 32.63 16.67 35.84 16.65 39.05 C16.62 43.17 16.64 47.29 16.66 51.41 C16.68 54.58 16.67 57.74 16.66 60.91 C16.66 62.43 16.66 63.95 16.67 65.46 C16.68 67.59 16.66 69.71 16.64 71.83 C16.64 73.64 16.64 73.64 16.63 75.48 C16.12 78.44 16.12 78.44 14.23 80.33 C10.52 82.29 6.8 81.91 2.69 81.88 C1.84 81.89 0.99 81.91 0.12 81.94 C-4.01 81.93 -6.31 81.78 -9.91 79.6 C-13.22 75.96 -13.01 72.75 -13.04 68.03 C-13.04 67.38 -13.05 66.73 -13.05 66.07 C-13.07 63.93 -13.07 61.8 -13.08 59.66 C-13.08 58.18 -13.09 56.69 -13.1 55.21 C-13.11 52.09 -13.11 48.98 -13.12 45.86 C-13.12 41.87 -13.14 37.89 -13.17 33.9 C-13.19 30.83 -13.2 27.76 -13.2 24.69 C-13.2 23.22 -13.21 21.75 -13.22 20.28 C-13.24 18.22 -13.24 16.17 -13.23 14.11 C-13.24 12.35 -13.24 12.35 -13.24 10.56 C-12.25 2.1 -7.74 0.06 0 0 Z " fill="#000000" transform="translate(627.875,76.5625)"/>
<path d="M0 0 C0.75 -0.01 1.5 -0.02 2.28 -0.04 C6.79 -0.01 9.98 0.32 13.56 3.38 C15.79 8.63 15.17 15.53 13.44 20.81 C11.03 24.11 9.46 25.1 5.56 26.38 C-0.3 26.98 -5.97 26.72 -11.44 24.38 C-15.23 20.33 -15.58 14.73 -15.44 9.38 C-12.61 1.18 -8.19 -0.13 0 0 Z " fill="#000000" transform="translate(629.4375,42.625)"/>
</svg>
